<?xml version="1.0" standalone="no"?>
<!DOCTYPE svg PUBLIC "-//W3C//DTD SVG 20010904//EN"
 "http://www.w3.org/TR/2001/REC-SVG-20010904/DTD/svg10.dtd">
<svg version="1.0" xmlns="http://www.w3.org/2000/svg"
 width="512.000000pt" height="512.000000pt" viewBox="0 0 512.000000 512.000000"
 preserveAspectRatio="xMidYMid meet">

<g transform="translate(0.000000,512.000000) scale(0.100000,-0.100000)"
fill="#000000" stroke="none">
<path d="M3705 4621 c-128 -47 -138 -55 -662 -528 -360 -324 -404 -368 -429
-420 l-29 -58 -3 -482 -3 -483 -254 0 -253 0 34 95 c93 260 99 533 17 701 -42
87 -112 158 -198 200 -83 41 -144 49 -172 22 -10 -11 -39 -108 -74 -247 -32
-130 -70 -259 -88 -296 -41 -89 -115 -160 -283 -273 -149 -101 -193 -144 -286
-280 -71 -103 -116 -147 -169 -161 -69 -19 -80 -16 -86 30 -8 57 -48 113 -99
138 -41 20 -60 21 -281 21 -292 0 -324 -9 -368 -105 -18 -38 -19 -89 -19 -957
0 -624 3 -926 11 -945 13 -34 55 -80 91 -99 39 -20 527 -20 566 0 64 34 102
104 102 190 l0 55 68 -26 c143 -55 340 -114 451 -136 112 -21 136 -22 761 -22
460 0 654 3 676 11 24 9 43 9 85 -2 45 -12 220 -14 1064 -12 l1010 3 53 24
c32 14 71 44 101 76 88 97 82 -29 79 1565 -3 1553 2 1431 -65 1511 -30 36
-771 704 -868 784 -33 26 -94 64 -135 84 -70 34 -82 36 -185 38 -86 2 -121 -1
-160 -16z m280 -169 c75 -36 96 -53 560 -471 209 -188 388 -356 398 -374 16
-30 17 -116 17 -1407 0 -1322 -1 -1377 -19 -1410 -10 -19 -34 -44 -52 -55 -33
-20 -54 -20 -1001 -23 -567 -1 -968 1 -968 7 0 5 7 26 16 47 25 57 23 167 -4
227 -20 46 -20 47 -2 47 36 0 121 38 165 75 29 23 56 59 77 103 29 57 33 77
33 142 0 65 -5 85 -32 139 l-31 64 47 46 c125 123 135 314 22 443 -22 24 -55
52 -75 63 -20 11 -35 22 -33 25 39 66 52 111 52 185 0 68 -4 89 -28 137 -34
70 -110 140 -175 163 -26 9 -84 19 -129 22 l-83 6 0 455 c0 440 1 457 21 496
14 29 130 139 405 386 461 414 473 424 549 461 85 41 184 41 270 1z m-2062
-998 c77 -76 102 -168 94 -344 -8 -178 -67 -378 -141 -474 -13 -17 -26 -41
-30 -53 -9 -29 18 -81 47 -88 12 -3 240 -6 507 -8 l485 -2 37 -23 c40 -25 78
-91 78 -137 0 -46 -38 -112 -78 -137 -36 -23 -42 -23 -392 -26 -346 -3 -355
-4 -377 -24 -23 -21 -29 -60 -17 -93 17 -43 42 -45 472 -45 409 0 409 0 443
-23 58 -39 81 -84 77 -145 -5 -56 -25 -91 -72 -126 -26 -20 -43 -21 -458 -26
l-430 -5 -19 -24 c-26 -32 -24 -77 6 -106 l24 -25 373 0 c367 0 374 -1 413
-23 54 -30 88 -95 82 -156 -5 -49 -29 -86 -77 -118 -33 -23 -36 -23 -402 -23
-387 0 -415 -3 -432 -45 -12 -32 -6 -69 16 -92 21 -23 24 -23 262 -23 213 0
246 -3 282 -19 135 -61 129 -243 -10 -296 -39 -15 -105 -16 -667 -12 -623 4
-624 4 -739 29 -63 14 -169 44 -235 68 -66 23 -155 54 -197 69 l-78 26 0 665
0 666 69 10 c131 21 195 66 297 211 98 140 134 175 264 264 153 104 221 162
275 234 62 83 98 176 147 374 45 186 43 183 101 125z m-1315 -1916 l2 -898
-225 0 -225 0 0 893 c0 492 3 897 7 901 4 3 104 5 222 4 l216 -3 3 -897z"/>
<path d="M3746 4120 c-64 -25 -129 -89 -157 -154 -31 -74 -24 -186 17 -253
124 -200 411 -180 507 36 56 128 -7 297 -137 363 -59 31 -166 34 -230 8z m171
-160 c45 -27 58 -56 54 -127 -2 -35 -57 -91 -97 -99 -71 -13 -144 46 -144 117
0 105 100 163 187 109z"/>
<path d="M3791 2924 c-16 -21 -21 -41 -21 -89 l0 -63 -46 -11 c-120 -30 -232
-120 -280 -224 -25 -53 -29 -75 -29 -147 0 -71 4 -94 26 -141 60 -128 179
-199 407 -244 226 -45 322 -119 322 -249 0 -108 -89 -183 -244 -205 -184 -26
-346 52 -391 190 -19 56 -46 79 -91 79 -46 0 -78 -42 -71 -93 8 -61 56 -143
117 -201 63 -60 129 -97 219 -122 l61 -17 0 -64 c0 -55 4 -68 25 -88 34 -35
86 -34 114 1 16 21 21 41 21 88 l0 62 72 17 c139 32 239 100 293 198 28 50 30
62 30 154 0 82 -4 109 -22 147 -34 74 -105 143 -193 187 -72 36 -117 49 -290
86 -96 20 -175 60 -214 108 -28 35 -31 46 -31 107 0 94 32 141 130 190 62 31
78 35 150 35 128 -1 207 -46 280 -159 19 -30 45 -60 56 -67 43 -22 109 18 109
66 0 40 -47 123 -102 182 -54 56 -135 103 -217 124 l-51 13 0 66 c0 57 -3 70
-23 88 -34 32 -89 30 -116 -4z"/>
</g>
</svg>
